Plot: A man searches the world for a set of mystic artifacts - 12 bronze heads of the animals from the Chinese zodiac.

MediaInfo 0.7.61:
General
Unique ID                                : 253468276029894995248299895665914801423 (0xBEB036DAC7B0719DA4CE2602E347ED0F)
Complete name                            : D:Chinese Zodiac (2012) WEB-DL 720p.mkv
Format                                   : Matroska
Format version                           : Version 4 / Version 2
File size                                : 2.02 GiB
Duration                                 : 1h 57mn
Overall bit rate                         : 2 467 Kbps
Encoded date                             : UTC 2010-02-22 21:41:31
Writing application                      : mkvmerge v5.9.0 ('On The Loose') built on Dec  9 2012 15:37:01
Writing library                          : libebml v1.3.0 + libmatroska v1.4.0

Video
ID                                       : 1
Format                                   : AVC
Format/Info                              : Advanced Video Codec
Format profile                           : High@L4.1
Format settings, CABAC                   : Yes
Format settings, ReFrames                : 5 frames
Codec ID                                 : V_MPEG4/ISO/AVC
Duration                                 : 1h 57mn
Bit rate                                 : 2 190 Kbps
Width                                    : 1 280 pixels
Height                                   : 528 pixels
Display aspect ratio                     : 2.40:1
Frame rate mode                          : Constant
Frame rate                               : 25.000 fps
Color space                              : YUV
Chroma subsampling                       : 4:2:0
Bit depth                                : 8 bits
Scan type                                : Progressive
Bits/(Pixel*Frame)                       : 0.130
Stream size                              : 1.72 GiB (85%)
Writing library                          : x264 core 129 r2245 bc13772
Encoding settings                        : cabac=1 / ref=5 / deblock=1:0:0 / analyse=0x3:0x113 / me=hex / subme=7 / psy=1 / psy_rd=1.00:0.00 / mixed_ref=0 / me_range=16 / chroma_me=1 / trellis=1 / 8x8dct=1 / cqm=0 / deadzone=21,11 / fast_pskip=0 / chroma_qp_offset=-2 / threads=3 / lookahead_threads=1 / sliced_threads=0 / nr=0 / decimate=0 / interlaced=0 / bluray_compat=0 / constrained_intra=0 / bframes=5 / b_pyramid=2 / b_adapt=1 / b_bias=0 / direct=1 / weightb=0 / open_gop=0 / weightp=2 / keyint=250 / keyint_min=25 / scenecut=40 / intra_refresh=0 / rc_lookahead=40 / rc=2pass / mbtree=1 / bitrate=2190 / ratetol=1.0 / qcomp=0.60 / qpmin=0 / qpmax=69 / qpstep=4 / cplxblur=20.0 / qblur=0.5 / ip_ratio=1.40 / aq=1:1.00
Default                                  : Yes
Forced                                   : No

Audio #1
ID                                       : 2
Format                                   : AC-3
Format/Info                              : Audio Coding 3
Mode extension                           : CM (complete main)
Format settings, Endianness              : Big
Codec ID                                 : A_AC3
Duration                                 : 1h 57mn
Bit rate mode                            : Constant
Bit rate                                 : 128 Kbps
Channel(s)                               : 2 channels
Channel positions                        : Front: L R
Sampling rate                            : 48.0 KHz
Bit depth                                : 16 bits
Compression mode                         : Lossy
Delay relative to video                  : 28ms
Stream size                              : 108 MiB (5%)
Language                                 : Russian
Default                                  : Yes
Forced                                   : No

Audio #2
ID                                       : 3
Format                                   : AC-3
Format/Info                              : Audio Coding 3
Mode extension                           : CM (complete main)
Format settings, Endianness              : Big
Codec ID                                 : A_AC3
Duration                                 : 1h 57mn
Bit rate mode                            : Constant
Bit rate                                 : 192 Kbps
Channel(s)                               : 2 channels
Channel positions                        : Front: L R
Sampling rate                            : 48.0 KHz
Bit depth                                : 16 bits
Compression mode                         : Lossy
Stream size                              : 161 MiB (8%)
Language                                 : Chinese
Default                                  : No
Forced                                   : No

